<svg xmlns="http://www.w3.org/2000/svg" viewBox="0 0 1200 900" width="1200" height="900" role="img" aria-label="cake illustration"><defs><linearGradient id="g" x1="0" y1="0" x2="1" y2="1"><stop offset="0" stop-color="#fdf4e6"/><stop offset="1" stop-color="#f2debb"/></linearGradient></defs><rect width="1200" height="900" fill="url(#g)"/><circle cx="1020" cy="150" r="230" fill="#dcae6a" opacity=".22"/><circle cx="140" cy="780" r="260" fill="#dcae6a" opacity=".16"/><g transform="translate(249.0 89.0) scale(1.7550)"><rect x="70" y="326" width="260" height="18" rx="9" fill="#dcae6a"/> <rect x="88" y="212" width="224" height="114" rx="16" fill="#9b6a2f"/> <rect x="88" y="200" width="224" height="24" rx="12" fill="#dcae6a"/> <rect x="112" y="150" width="176" height="58" rx="14" fill="#c8802f"/> <rect x="112" y="142" width="176" height="20" rx="10" fill="#dcae6a"/> <rect x="194" y="96" width="12" height="50" rx="6" fill="#dcae6a"/> <path d="M200 62c22 24 18 44 0 50-18-6-22-26 0-50z" fill="#c8802f"/></g></svg>
