<svg xmlns="http://www.w3.org/2000/svg" viewBox="0 0 1200 900" width="1200" height="900" role="img" aria-label="loaf illustration"><defs><linearGradient id="g" x1="0" y1="0" x2="1" y2="1"><stop offset="0" stop-color="#fdf4e6"/><stop offset="1" stop-color="#f2debb"/></linearGradient></defs><rect width="1200" height="900" fill="url(#g)"/><rect y="558" width="1200" height="342" fill="#dcae6a" opacity=".2"/><rect y="666" width="1200" height="234" fill="#dcae6a" opacity=".18"/><g transform="translate(249.0 89.0) scale(1.7550)"><path d="M62 262c0-66 46-110 138-110s138 44 138 110v18a16 16 0 0 1-16 16H78a16 16 0 0 1-16-16z" fill="#9b6a2f"/> <g stroke="#dcae6a" stroke-width="13" stroke-linecap="round" opacity=".9"> <path d="M118 208l28-30"/><path d="M180 200l28-30"/><path d="M242 208l28-30"/> </g> <rect x="52" y="304" width="296" height="16" rx="8" fill="#dcae6a"/></g></svg>
