<svg xmlns="http://www.w3.org/2000/svg" viewBox="0 0 1200 900" width="1200" height="900" role="img" aria-label="camera illustration"><defs><linearGradient id="g" x1="0" y1="0" x2="1" y2="1"><stop offset="0" stop-color="#f0f0ef"/><stop offset="1" stop-color="#d6d6d4"/></linearGradient></defs><rect width="1200" height="900" fill="url(#g)"/><circle cx="600" cy="450" r="340" fill="#9d9d99" opacity=".16"/><circle cx="600" cy="450" r="250" fill="#9d9d99" opacity=".14"/><g transform="translate(249.0 89.0) scale(1.7550)"><path d="M94 152h46l20-30h80l20 30h46a26 26 0 0 1 26 26v122a26 26 0 0 1-26 26H94a26 26 0 0 1-26-26V178a26 26 0 0 1 26-26z" fill="#4a4a47"/> <circle cx="200" cy="240" r="60" fill="#9d9d99"/> <circle cx="200" cy="240" r="33" fill="#f0f0ef" opacity=".7"/> <circle cx="290" cy="186" r="11" fill="#7a7a75"/></g></svg>
